<?xml version="1.0" encoding="utf-8"?>
<!-- Generator: Adobe Illustrator 22.1.0, SVG Export Plug-In . SVG Version: 6.00 Build 0)  -->
<svg version="1.1" id="Camada_1" xmlns="http://www.w3.org/2000/svg" xmlns:xlink="http://www.w3.org/1999/xlink" x="0px" y="0px"
	 viewBox="0 0 92.3 72.3" style="enable-background:new 0 0 92.3 72.3;" xml:space="preserve">
<style type="text/css">
	.st0{fill:#00C0B8;}
</style>
<title>atwork</title>
<g id="Camada_2_1_">
	<path class="st0" d="M26.3,66.6c-0.5,0-0.9-0.3-1.1-0.7l-6.4-15.7l-6.6,15.8c-0.2,0.4-0.6,0.7-1.1,0.7l0,0c-0.5,0-0.9-0.3-1.1-0.8
		L0.1,37.3c-0.1-0.3-0.1-0.6,0-0.9c0.1-0.3,0.4-0.5,0.7-0.6c0.1,0,0.3-0.1,0.4-0.1c0.5,0,0.9,0.3,1.1,0.8l8.9,25.6l6.5-15.6
		c0.2-0.6,0.9-0.9,1.5-0.6c0.3,0.1,0.5,0.3,0.6,0.6l6.3,15.6l9.5-25.7c0.2-0.5,0.6-0.8,1.1-0.8c0.1,0,0.3,0,0.4,0.1
		c0.3,0.1,0.5,0.3,0.7,0.6c0.1,0.3,0.1,0.6,0,0.9L27.4,65.8C27.2,66.3,26.8,66.6,26.3,66.6L26.3,66.6z"/>
	<path class="st0" d="M31.2,42.2c-0.1,0-0.3,0-0.4-0.1c-0.6-0.2-0.9-0.9-0.7-1.6l13-35.4c0.2-0.5,0.6-0.8,1.1-0.8l0,0
		c0.5,0,1,0.3,1.1,0.8l9.4,26.7c0.2,0.6-0.1,1.3-0.7,1.5c-0.1,0-0.3,0.1-0.4,0.1H40.1c-0.7,0-1.2-0.5-1.2-1.2s0.5-1.2,1.2-1.2
		c0,0,0,0,0,0h11.8L44.2,9.1L32.4,41.4C32.2,41.8,31.7,42.1,31.2,42.2z"/>
	<path class="st0" d="M70.2,0H46.5c-0.7,0-1.2,0.5-1.2,1.2c0,0,0,0,0,0c0,0.7,0.5,1.2,1.2,1.2h10.6V32c0,0.7,0.5,1.2,1.2,1.2
		c0.7,0,1.2-0.5,1.2-1.2V2.4h10.6c0.7,0,1.2-0.5,1.2-1.2C71.4,0.6,70.9,0,70.2,0C70.2,0,70.2,0,70.2,0z"/>
	<path class="st0" d="M76.8,51.4c-0.4,0-0.8-0.2-1-0.6l-8.6-13.5c-0.4-0.6-0.2-1.3,0.4-1.7c0.2-0.1,0.4-0.2,0.6-0.2h3.6
		c1,0,2-0.4,2.7-1c0.7-0.8,1.1-1.8,1-2.9c0.2-2.1-1.3-4-3.4-4.2c-0.1,0-0.2,0-0.4,0h-6.4v22.8c0,0.7-0.5,1.2-1.2,1.2
		c-0.7,0-1.2-0.5-1.2-1.2c0,0,0,0,0,0v-24c0-0.7,0.5-1.2,1.2-1.2c0,0,0,0,0,0h7.7c3.4,0,6.2,2.7,6.2,6.1c0,0.2,0,0.3,0,0.5
		c0.1,1.7-0.6,3.4-1.8,4.7c-1.2,1.1-2.8,1.6-4.4,1.6h-1.4l7.4,11.6c0.2,0.3,0.2,0.6,0.2,0.9c-0.1,0.3-0.3,0.6-0.5,0.8
		C77.2,51.4,77,51.4,76.8,51.4z"/>
	<path class="st0" d="M91.1,39c-0.3,0-0.6-0.1-0.9-0.3l-8.8-8.8v7.6c0,0.7-0.5,1.2-1.2,1.2S79,38.2,79,37.5v-28
		c0-0.7,0.5-1.2,1.2-1.2s1.2,0.5,1.2,1.2V24l6.1-6.1c0.5-0.5,1.3-0.5,1.7,0c0.5,0.5,0.5,1.3,0,1.7l0,0L82,26.9l10,10
		c0.5,0.5,0.5,1.2,0,1.7C91.8,38.9,91.4,39,91.1,39z"/>
	<path class="st0" d="M48.1,57.4c-5.7,0-10.2-4.6-10.2-10.2s4.6-10.2,10.2-10.2s10.2,4.6,10.2,10.2C58.4,52.8,53.8,57.4,48.1,57.4z
		 M48.1,39.1c-4.4,0-8,3.6-8,8s3.6,8,8,8s8-3.6,8-8S52.6,39.1,48.1,39.1z"/>
	<path class="st0" d="M53.2,60.8H43.1c-0.6,0-1.1-0.5-1.1-1.1s0.5-1.1,1.1-1.1h10.2c0.6,0,1.1,0.5,1.1,1.1S53.8,60.8,53.2,60.8
		L53.2,60.8z"/>
	<path class="st0" d="M53.2,64.4H43.1c-0.6,0-1.1-0.5-1.1-1.1s0.5-1.1,1.1-1.1h10.2c0.6,0,1.1,0.5,1.1,1.1S53.8,64.4,53.2,64.4
		L53.2,64.4z"/>
	<path class="st0" d="M48.1,72.3c-3.1,0.1-5.8-2.4-5.9-5.5c0,0,0-0.1,0-0.1c0-0.6,0.5-1.1,1.1-1.2s1.1,0.5,1.2,1.1
		c0,1.9,1.6,3.5,3.6,3.5c0,0,0,0,0.1,0c1.3,0.1,2.5-0.6,3.1-1.7c0.3-0.6,0.5-1.2,0.5-1.8c0-0.6,0.5-1.1,1.2-1.1s1.1,0.5,1.1,1.2
		c0,3.1-2.6,5.7-5.7,5.6C48.2,72.3,48.2,72.3,48.1,72.3z"/>
</g>
</svg>
