<svg xmlns="http://www.w3.org/2000/svg" viewBox="0 0 138.06 57.56"><defs><style>.cls-1,.cls-2{fill:#1eaf12;}.cls-2{font-size:48.65px;font-family:MinionPro-Medium, Minion Pro;}.cls-3{letter-spacing:-0.01em;}</style></defs><title>logo-minimal</title><g id="Camada_2" data-name="Camada 2"><path class="cls-1" d="M20.66,38.63A16.67,16.67,0,0,1,18.48,5.44a18.57,18.57,0,1,0,18.66,19A16.67,16.67,0,0,1,20.66,38.63Z"/><path class="cls-1" d="M13.4,31.87A14.08,14.08,0,0,1,31.93,10.74a15.69,15.69,0,1,0-.2,22.5A14.08,14.08,0,0,1,13.4,31.87Z"/><path class="cls-1" d="M13.65,23.21a11.49,11.49,0,0,1,22.89-1.5,12.81,12.81,0,1,0-13.1,12.87A11.5,11.5,0,0,1,13.65,23.21Z"/><text class="cls-2" transform="translate(46.49 40.04)"><tspan class="cls-3">N</tspan><tspan x="35.76" y="0">CS</tspan></text></g></svg>