<svg xmlns="http://www.w3.org/2000/svg" viewBox="0 0 215.16 84.63"><defs><style>.cls-1,.cls-2{fill:#fff;}.cls-2{font-size:66.4px;font-family:MinionPro-Medium, Minion Pro;}.cls-3{letter-spacing:-0.01em;}</style></defs><title>logo</title><g id="Camada_2" data-name="Camada 2"><path class="cls-1" d="M45.16,72.54A36.43,36.43,0,0,1,40.39,0a40.6,40.6,0,1,0,40.8,41.53A36.44,36.44,0,0,1,45.16,72.54Z"/><path class="cls-1" d="M29.3,57.78a30.79,30.79,0,0,1,40.5-46.2,34.31,34.31,0,1,0-.44,49.2A30.78,30.78,0,0,1,29.3,57.78Z"/><path class="cls-1" d="M29.85,38.85a25.12,25.12,0,0,1,50-3.29A28,28,0,1,0,51.24,63.7,25.13,25.13,0,0,1,29.85,38.85Z"/><text class="cls-2" transform="translate(90.19 60.72)"><tspan class="cls-3">N</tspan><tspan x="48.8" y="0">CS</tspan></text></g></svg>