<svg xmlns="http://www.w3.org/2000/svg" viewBox="0 0 319.84 319.88"><defs><style>.cls-1{fill:none;stroke:#fff;stroke-miterlimit:10;}</style></defs><title>symbol</title><g id="Camada_2" data-name="Camada 2"><path class="cls-1" d="M177.85,285.4A143.06,143.06,0,0,1,159.14.5a159.44,159.44,0,1,0,160.2,163.09A143.09,143.09,0,0,1,177.85,285.4Z"/><path class="cls-1" d="M115.56,227.43A120.91,120.91,0,0,1,274.63,46a134.75,134.75,0,1,0-1.72,193.2A120.92,120.92,0,0,1,115.56,227.43Z"/><path class="cls-1" d="M117.72,153.07a98.67,98.67,0,0,1,196.49-12.9A110,110,0,1,0,201.73,250.65,98.67,98.67,0,0,1,117.72,153.07Z"/></g></svg>